<?xml version="1.0" encoding="UTF-8" standalone="no"?>
<svg
   width="24"
   height="24"
   viewBox="0 0 6.3499999 6.35"
   version="1.1"
   id="svg1486"
   xml:space="preserve"
   xmlns="http://www.w3.org/2000/svg"
><defs
   id="defs186"><filter
     id="b"
     width="60.045"
     height="41.654"
     x="-19.77"
     y="16.149"
     color-interpolation-filters="sRGB"
     filterUnits="userSpaceOnUse"><feFlood
       flood-opacity="0"
       result="BackgroundImageFix"
       id="feFlood12536" /><feBlend
       in="SourceGraphic"
       in2="BackgroundImageFix"
       result="shape"
       id="feBlend12538" /><feGaussianBlur
       result="effect1_foregroundBlur_2002_17158"
       stdDeviation="7.659"
       id="feGaussianBlur12540" /></filter><filter
     id="c"
     width="90.34"
     height="51.437"
     x="-54.613"
     y="-7.533"
     color-interpolation-filters="sRGB"
     filterUnits="userSpaceOnUse"><feFlood
       flood-opacity="0"
       result="BackgroundImageFix"
       id="feFlood12543" /><feBlend
       in="SourceGraphic"
       in2="BackgroundImageFix"
       result="shape"
       id="feBlend12545" /><feGaussianBlur
       result="effect1_foregroundBlur_2002_17158"
       stdDeviation="7.659"
       id="feGaussianBlur12547" /></filter><filter
     id="d"
     width="79.355"
     height="29.4"
     x="-49.64"
     y="2.03"
     color-interpolation-filters="sRGB"
     filterUnits="userSpaceOnUse"><feFlood
       flood-opacity="0"
       result="BackgroundImageFix"
       id="feFlood12550" /><feBlend
       in="SourceGraphic"
       in2="BackgroundImageFix"
       result="shape"
       id="feBlend12552" /><feGaussianBlur
       result="effect1_foregroundBlur_2002_17158"
       stdDeviation="4.596"
       id="feGaussianBlur12554" /></filter><filter
     id="e"
     width="79.579"
     height="29.4"
     x="-45.045"
     y="20.029"
     color-interpolation-filters="sRGB"
     filterUnits="userSpaceOnUse"><feFlood
       flood-opacity="0"
       result="BackgroundImageFix"
       id="feFlood12557" /><feBlend
       in="SourceGraphic"
       in2="BackgroundImageFix"
       result="shape"
       id="feBlend12559" /><feGaussianBlur
       result="effect1_foregroundBlur_2002_17158"
       stdDeviation="4.596"
       id="feGaussianBlur12561" /></filter><filter
     id="f"
     width="79.579"
     height="29.4"
     x="-43.513"
     y="21.178"
     color-interpolation-filters="sRGB"
     filterUnits="userSpaceOnUse"><feFlood
       flood-opacity="0"
       result="BackgroundImageFix"
       id="feFlood12564" /><feBlend
       in="SourceGraphic"
       in2="BackgroundImageFix"
       result="shape"
       id="feBlend12566" /><feGaussianBlur
       result="effect1_foregroundBlur_2002_17158"
       stdDeviation="4.596"
       id="feGaussianBlur12568" /></filter><filter
     id="g"
     width="74.749"
     height="58.852"
     x="15.756"
     y="-17.901"
     color-interpolation-filters="sRGB"
     filterUnits="userSpaceOnUse"><feFlood
       flood-opacity="0"
       result="BackgroundImageFix"
       id="feFlood12571" /><feBlend
       in="SourceGraphic"
       in2="BackgroundImageFix"
       result="shape"
       id="feBlend12573" /><feGaussianBlur
       result="effect1_foregroundBlur_2002_17158"
       stdDeviation="7.659"
       id="feGaussianBlur12575" /></filter><filter
     id="h"
     width="61.377"
     height="25.362"
     x="23.548"
     y="2.284"
     color-interpolation-filters="sRGB"
     filterUnits="userSpaceOnUse"><feFlood
       flood-opacity="0"
       result="BackgroundImageFix"
       id="feFlood12578" /><feBlend
       in="SourceGraphic"
       in2="BackgroundImageFix"
       result="shape"
       id="feBlend12580" /><feGaussianBlur
       result="effect1_foregroundBlur_2002_17158"
       stdDeviation="4.596"
       id="feGaussianBlur12582" /></filter><filter
     id="i"
     width="61.377"
     height="25.362"
     x="23.548"
     y="2.284"
     color-interpolation-filters="sRGB"
     filterUnits="userSpaceOnUse"><feFlood
       flood-opacity="0"
       result="BackgroundImageFix"
       id="feFlood12585" /><feBlend
       in="SourceGraphic"
       in2="BackgroundImageFix"
       result="shape"
       id="feBlend12587" /><feGaussianBlur
       result="effect1_foregroundBlur_2002_17158"
       stdDeviation="4.596"
       id="feGaussianBlur12589" /></filter><filter
     id="j"
     width="56.045"
     height="63.649"
     x="-27.636"
     y="-22.853"
     color-interpolation-filters="sRGB"
     filterUnits="userSpaceOnUse"><feFlood
       flood-opacity="0"
       result="BackgroundImageFix"
       id="feFlood12592" /><feBlend
       in="SourceGraphic"
       in2="BackgroundImageFix"
       result="shape"
       id="feBlend12594" /><feGaussianBlur
       result="effect1_foregroundBlur_2002_17158"
       stdDeviation="4.596"
       id="feGaussianBlur12596" /></filter><filter
     id="k"
     width="54.814"
     height="64.646"
     x="20.116"
     y="-38.415"
     color-interpolation-filters="sRGB"
     filterUnits="userSpaceOnUse"><feFlood
       flood-opacity="0"
       result="BackgroundImageFix"
       id="feFlood12599" /><feBlend
       in="SourceGraphic"
       in2="BackgroundImageFix"
       result="shape"
       id="feBlend12601" /><feGaussianBlur
       result="effect1_foregroundBlur_2002_17158"
       stdDeviation="4.596"
       id="feGaussianBlur12603" /></filter><filter
     id="l"
     width="33.541"
     height="35.313"
     x="24.641"
     y="-11.323"
     color-interpolation-filters="sRGB"
     filterUnits="userSpaceOnUse"><feFlood
       flood-opacity="0"
       result="BackgroundImageFix"
       id="feFlood12606" /><feBlend
       in="SourceGraphic"
       in2="BackgroundImageFix"
       result="shape"
       id="feBlend12608" /><feGaussianBlur
       result="effect1_foregroundBlur_2002_17158"
       stdDeviation="4.596"
       id="feGaussianBlur12610" /></filter><filter
     id="m"
     width="54.814"
     height="64.646"
     x="-29.286"
     y="6.009"
     color-interpolation-filters="sRGB"
     filterUnits="userSpaceOnUse"><feFlood
       flood-opacity="0"
       result="BackgroundImageFix"
       id="feFlood12613" /><feBlend
       in="SourceGraphic"
       in2="BackgroundImageFix"
       result="shape"
       id="feBlend12615" /><feGaussianBlur
       result="effect1_foregroundBlur_2002_17158"
       stdDeviation="4.596"
       id="feGaussianBlur12617" /></filter><filter
     id="n"
     width="54.814"
     height="64.646"
     x="-29.286"
     y="6.009"
     color-interpolation-filters="sRGB"
     filterUnits="userSpaceOnUse"><feFlood
       flood-opacity="0"
       result="BackgroundImageFix"
       id="feFlood12620" /><feBlend
       in="SourceGraphic"
       in2="BackgroundImageFix"
       result="shape"
       id="feBlend12622" /><feGaussianBlur
       result="effect1_foregroundBlur_2002_17158"
       stdDeviation="4.596"
       id="feGaussianBlur12624" /></filter><filter
     id="o"
     width="54.814"
     height="64.646"
     x="8.244"
     y="-2.416"
     color-interpolation-filters="sRGB"
     filterUnits="userSpaceOnUse"><feFlood
       flood-opacity="0"
       result="BackgroundImageFix"
       id="feFlood12627" /><feBlend
       in="SourceGraphic"
       in2="BackgroundImageFix"
       result="shape"
       id="feBlend12629" /><feGaussianBlur
       result="effect1_foregroundBlur_2002_17158"
       stdDeviation="4.596"
       id="feGaussianBlur12631" /></filter><filter
     id="p"
     width="39.409"
     height="43.623"
     x="18.713"
     y="10.588"
     color-interpolation-filters="sRGB"
     filterUnits="userSpaceOnUse"><feFlood
       flood-opacity="0"
       result="BackgroundImageFix"
       id="feFlood12634" /><feBlend
       in="SourceGraphic"
       in2="BackgroundImageFix"
       result="shape"
       id="feBlend12636" /><feGaussianBlur
       result="effect1_foregroundBlur_2002_17158"
       stdDeviation="4.596"
       id="feGaussianBlur12638" /></filter></defs>
     
     <path
   style="fill:#aa4400;fill-opacity:1;stroke-width:0.0111986"
   d="m 0.32756376,4.995479 c 0,-0.024618 0.0691687,-0.1909081 0.50745049,-1.2199704 C 1.6899614,1.7681377 1.8251202,1.4639677 1.8697666,1.4468353 c 0.0097,-0.00372 0.026091,8.824e-4 0.036423,0.010233 0.020674,0.018709 0.1627389,0.2895339 0.3027073,0.5770631 l 0.089949,0.1847763 -0.028099,0.024604 c -0.015455,0.013532 -0.034734,0.02865 -0.042843,0.033596 -0.00811,0.00495 -0.044596,0.054165 -0.081082,0.109377 -0.064702,0.097909 -0.06653,0.1027821 -0.074099,0.1975065 -0.00427,0.053416 -0.015684,0.1238029 -0.025368,0.1564142 -0.026518,0.089295 -0.022404,0.1201677 0.027358,0.2053239 0.024732,0.042322 0.04778,0.088158 0.051218,0.1018581 0.00842,0.033552 0.066207,0.102213 0.1169736,0.1389883 l 0.04142,0.030005 0.1162795,-0.013625 c 0.063954,-0.00749 0.1457367,-0.021234 0.1817401,-0.030534 0.075716,-0.019558 0.085145,-0.017462 0.1173459,0.026092 0.013109,0.017731 0.035293,0.033864 0.049297,0.035851 0.040132,0.00569 0.077539,0.090107 0.071493,0.161331 C 2.8161,3.4472617 2.8203154,3.4604267 2.865178,3.535398 2.89242,3.580922 2.924665,3.6447807 2.936834,3.6773054 2.965373,3.7535834 2.9678,3.8634705 2.942054,3.913813 2.931502,3.934447 2.920359,3.982603 2.917291,4.0208258 c -0.00485,0.060465 -0.00102,0.079878 0.029484,0.1493821 0.019284,0.043937 0.043081,0.1192456 0.052882,0.1673521 0.0098,0.048106 0.032195,0.1205318 0.049764,0.1609454 0.017569,0.040413 0.03781,0.098366 0.044979,0.1287835 0.022817,0.096806 0.01894,0.094886 0.1625826,0.08052 0.062059,-0.00621 0.09357,-0.019648 0.1435347,-0.061224 l 0.032546,-0.027082 0.042852,0.081435 c 0.050581,0.096124 0.061439,0.1077781 0.1496238,0.1605969 0.092081,0.055152 0.1864138,0.082054 0.3577386,0.1020207 0.1410762,0.016441 0.1616317,0.020896 0.1500157,0.032512 -0.00303,0.00303 -0.3311298,0.00889 -0.7291055,0.013028 l -0.7235921,0.00751 -0.027102,-0.060622 C 2.6150809,4.8700579 2.1592753,3.8988121 1.923896,3.4013291 1.8148676,3.1708935 1.6752803,2.8816868 1.613702,2.7586474 1.5189443,2.5693124 1.4994076,2.5373306 1.4865523,2.5505013 1.468867,2.5686207 1.3596821,2.8146707 0.93550032,3.7923064 0.59997725,4.5656055 0.45538295,4.8887768 0.41112252,4.9643015 c -0.0213733,0.036471 -0.0354001,0.048649 -0.0560344,0.048649 -0.0174718,0 -0.0275244,-0.00638 -0.0275244,-0.017472 z m 0.44794269,-0.00296 c 0,-0.049799 0.15603137,-0.4376531 0.46256345,-1.1498145 0.1991495,-0.4626812 0.2527862,-0.5745607 0.2656781,-0.554171 0.03957,0.062583 -0.00798,0.1964687 -0.3710672,1.044848 -0.24106397,0.5632599 -0.29946075,0.6795732 -0.34118925,0.6795732 -0.00879,0 -0.015985,-0.0092 -0.0159851,-0.020436 z m 0.38075125,0.00841 c 0,-0.022441 0.3930713,-0.9362389 0.4851867,-1.1279445 0.058364,-0.1214644 0.078538,-0.139871 0.091018,-0.083047 0.01242,0.056548 -0.054809,0.235306 -0.2852988,0.758598 -0.1193485,0.2709621 -0.1924365,0.420342 -0.2183342,0.4462397 -0.020342,0.020342 -0.072572,0.024771 -0.072572,0.00615 z M 1.5594062,4.984536 c 0,-0.037461 0.054009,-0.1754345 0.1714914,-0.4380983 0.1351614,-0.30219 0.1748507,-0.3786685 0.1891127,-0.3644065 0.026267,0.026267 0.00264,0.1404764 -0.063006,0.3045908 -0.074289,0.1857149 -0.2108456,0.4761336 -0.2379771,0.5061135 -0.027663,0.030567 -0.059621,0.026172 -0.059621,-0.0082 z m 2.794814,-0.0063 C 4.3202302,4.937835 4.0118646,4.3240633 4.0119432,4.296961 c 2.24e-5,-0.00963 0.020185,-0.079411 0.044794,-0.1550605 0.043785,-0.1345986 0.054848,-0.2154894 0.033982,-0.2484827 -0.00573,-0.00906 -0.011952,-0.0141 -0.013827,-0.011199 -0.00187,0.0029 -0.013287,0.024667 -0.025361,0.048368 -0.012074,0.023701 -0.036487,0.053938 -0.05425,0.067191 -0.017764,0.013254 -0.046584,0.037213 -0.064045,0.053241 l -0.031747,0.029143 -0.035661,-0.081791 c -0.038364,-0.08799 -0.060751,-0.1747729 -0.078659,-0.304925 -0.010437,-0.075857 -0.00928,-0.08644 0.015281,-0.1399821 0.014615,-0.031857 0.067107,-0.1087599 0.1166502,-0.1708963 0.049543,-0.062137 0.1030315,-0.1326875 0.1188636,-0.15678 0.053773,-0.081829 0.119709,-0.3182788 0.088713,-0.3181289 -0.00462,2.24e-5 -0.04821,0.014913 -0.096867,0.033091 -0.098669,0.036861 -0.120045,0.033658 -0.1390406,-0.020833 -0.00632,-0.018133 -0.039607,-0.063549 -0.073969,-0.1009262 -0.034362,-0.037377 -0.062476,-0.073149 -0.062476,-0.079494 0,-0.00634 -0.012292,-0.030326 -0.027315,-0.05329 -0.015023,-0.022965 -0.030882,-0.056386 -0.035241,-0.07427 -0.00436,-0.017883 -0.043319,-0.1010328 -0.086575,-0.1847764 -0.047104,-0.091191 -0.069457,-0.1442068 -0.055731,-0.1321801 0.018186,0.015935 0.024122,0.016944 0.028748,0.00489 0.00824,-0.021466 -0.00332,-0.074142 -0.018398,-0.083838 -0.035795,-0.023021 -0.089868,-0.034087 -0.1167052,-0.023884 -0.032796,0.012469 -0.1059874,0.00466 -0.1894387,-0.020216 -0.06916,-0.020615 -0.092868,-0.014341 -0.092868,0.024577 0,0.039437 -0.023298,0.044904 -0.076246,0.017892 C 3.0230852,2.1830425 3.0114691,2.1659558 2.8852038,1.9211658 2.8242896,1.8030717 2.7560843,1.6855198 2.7336365,1.6599396 2.6553041,1.5706769 2.5196295,1.519273 2.2883309,1.491224 2.2119005,1.4819555 2.1471338,1.4721394 2.1444049,1.4694105 2.1266328,1.4516386 2.3064038,1.4462066 2.9123391,1.4462066 h 0.6866182 l 0.1404026,0.3023613 c 0.6133137,1.3207892 1.0276962,2.1893199 1.0445411,2.1893199 0.0046,0 0.1612725,-0.3540147 0.3481688,-0.7866994 0.7388649,-1.7105498 0.7388796,-1.7105811 0.8009467,-1.7105811 0.015085,0 0.027427,0.0029 0.027427,0.00644 0,0.013685 -0.4450008,1.0647498 -1.0213855,2.4124509 -0.4440727,1.0383295 -0.4927074,1.1425951 -0.5369373,1.151113 -0.00978,0.00188 -0.03133,-0.012689 -0.0479,-0.032382 z M 4.7689938,3.1474729 C 4.7490457,3.095489 4.7643916,3.0448714 4.90928,2.6847495 5.0286542,2.3880435 5.3123975,1.7283264 5.3721364,1.6085858 5.435013,1.4825562 5.4705889,1.4406073 5.5145955,1.4406073 c 0.017325,0 0.031501,0.00181 0.031501,0.00403 0,0.00222 -0.020717,0.048832 -0.046038,0.1035867 C 5.4747368,1.6029817 5.3543496,1.8795911 5.2325306,2.1629149 5.1107117,2.4462386 4.9707888,2.7687574 4.9215911,2.8796232 4.784934,3.1875757 4.7846046,3.188154 4.7689938,3.1474729 Z M 4.5605974,2.7059991 C 4.5254272,2.6402829 4.565577,2.520219 4.8152309,1.9445428 5.0069684,1.502416 5.0410526,1.4406073 5.093124,1.4406073 c 0.015085,0 0.027426,0.00242 0.027426,0.00537 0,0.017274 -0.5065596,1.214939 -0.5372615,1.2702535 -0.00688,0.012388 -0.011764,0.010183 -0.022692,-0.010236 z M 4.3558196,2.2735386 C 4.3238456,2.2415645 4.3672363,2.0860337 4.4822863,1.8202291 4.6093935,1.5265681 4.6634835,1.4347567 4.7044224,1.4431799 c 0.039507,0.00813 0.00551,0.1041828 -0.1941338,0.5485199 -0.1066942,0.2374626 -0.139319,0.2969888 -0.154469,0.2818388 z"
   id="path746" /></svg>
